<?xml version="1.0" encoding="UTF-8"?>
<svg version="1.1" xmlns="http://www.w3.org/2000/svg" width="2160" height="2160">
<path d="M0 0 C712.8 0 1425.6 0 2160 0 C2160 712.8 2160 1425.6 2160 2160 C1447.2 2160 734.4 2160 0 2160 C0 1447.2 0 734.4 0 0 Z " fill="#D4F1FE" transform="translate(0,0)"/>
<path d="M0 0 C3.07449399 1.49775325 6.00430405 3.18095868 8.9375 4.9375 C9.77796875 5.43403076 10.6184375 5.93056152 11.484375 6.44213867 C29.97548507 17.46420115 47.56909278 30.09311768 64 44 C65.03073806 44.85738666 66.0620156 45.71412505 67.09375 46.5703125 C79.66122073 57.04374314 91.44273145 68.27332113 102.98632812 79.85595703 C104.89078505 81.76582994 106.80060819 83.67022149 108.7109375 85.57421875 C114.68621282 91.54590526 120.56562522 97.52436387 126 104 C126.97232482 105.11860949 127.9462588 106.23582248 128.921875 107.3515625 C135.87222951 115.37548991 142.54435956 123.57349983 149 132 C149.46873535 132.61037109 149.9374707 133.22074219 150.42041016 133.84960938 C205.8978766 206.31763661 247.84083412 292.61853399 271.37792969 386.55224609 C272.15371954 389.60486345 273.01107678 392.62987674 273.88110352 395.65673828 C280.06105365 417.18295513 284.29647307 439.12091371 288.29223633 461.13525391 C288.9127273 464.52344708 289.54854713 467.90813642 290.19110107 471.29217529 C291.39387347 477.63699026 292.54822996 483.97756481 293.4375 490.375 C293.55746338 491.23270996 293.67742676 492.09041992 293.80102539 492.97412109 C300.30766435 540.49765849 303.77757626 588.09975019 306 636 C306.55316391 635.60830124 307.10632782 635.21660248 307.67625427 634.81303406 C310.23897055 633.00108471 312.80500686 631.19389111 315.37109375 629.38671875 C316.24068726 628.77082886 317.11028076 628.15493896 318.00622559 627.52038574 C326.27600514 621.70530806 334.84139369 616.48915932 343.578125 611.41162109 C345.90462313 610.05559164 348.21902218 608.68096776 350.53125 607.30078125 C364.04736642 599.28450772 377.97597739 592.0811954 392 585 C393.00740234 584.48824219 394.01480469 583.97648438 395.05273438 583.44921875 C433.58864047 563.98871454 475.1309724 548.52452269 517 538 C518.88404541 537.52336914 518.88404541 537.52336914 520.80615234 537.03710938 C553.87829073 528.72748784 587.04828009 523.16084154 621 520 C621.86074127 519.91378891 622.72148254 519.82757782 623.60830688 519.73875427 C631.9589688 518.95796708 640.28393945 518.80414072 648.6640625 518.76171875 C649.4000511 518.75689547 650.1360397 518.75207218 650.89433098 518.74710274 C656.47121425 518.71104357 662.04801181 518.69519184 667.625 518.6875 C668.44294415 518.68605484 669.26088829 518.68460968 670.10361862 518.68312073 C696.26731896 518.64572091 722.04916944 519.37549193 748 523 C749.12583496 523.14953125 750.25166992 523.2990625 751.41162109 523.453125 C758.32800219 524.39433673 765.15790561 525.62462979 772 527 C773.42087656 527.28152319 774.84177667 527.56292755 776.26269531 527.84423828 C796.37884346 531.84683175 816.29875358 536.25813334 836 542 C836.74185547 542.21188965 837.48371094 542.4237793 838.24804688 542.64208984 C899.96767494 560.36662555 984.3166872 593.3166872 1030 639 C1029.96033125 641.37097082 1029.8504192 643.69905573 1029.6875 646.0625 C1029.60886719 647.35285156 1029.53023437 648.64320313 1029.44921875 649.97265625 C1028.41687899 662.76439594 1026.4137871 675.4720681 1024.3125 688.125 C1024.18472168 688.89536591 1024.05694336 689.66573181 1023.92529297 690.45944214 C1020.3711142 711.69974866 1015.88969368 732.76833487 1008.94433594 753.18310547 C1008.02078416 755.93800216 1007.12833234 758.70188067 1006.24301147 761.4692688 C989.36707875 814.17655057 965.49590339 864.41254199 934 910 C933.54979492 910.65597168 933.09958984 911.31194336 932.63574219 911.98779297 C922.02083316 927.41542464 910.62295094 942.21783312 898.3828125 956.390625 C896.90042634 958.11588799 895.43369705 959.85366061 893.96875 961.59375 C888.85944778 967.64366678 883.68466889 973.47167286 878.00390625 979 C876.1094865 980.89072693 874.36111341 982.83927363 872.625 984.875 C866.40244995 992.10817303 859.53940518 998.81272018 852.28125 1005 C849.80732751 1007.16891835 847.41116879 1009.40827129 845.01342773 1011.66064453 C838.55004663 1017.72908444 831.92637336 1023.46073854 825 1029 C823.80841891 1029.98128222 822.61841404 1030.96448045 821.4296875 1031.94921875 C797.51258995 1051.70998218 771.7438622 1069.28508564 745 1085 C744.23187988 1085.4547168 743.46375977 1085.90943359 742.67236328 1086.37792969 C698.90762066 1112.19674211 652.55793705 1132.05020334 604.7361908 1148.96102905 C600.86803607 1150.32926697 597.01618943 1151.7343335 593.171875 1153.16796875 C587.71222888 1155.15855542 582.16821608 1156.72811701 576.5625 1158.25 C574.34346939 1158.85965663 572.12472963 1159.47037271 569.90625 1160.08203125 C568.19695313 1160.55310303 568.19695313 1160.55310303 566.453125 1161.03369141 C563.07498202 1161.97901733 559.70843075 1162.95713274 556.34375 1163.94921875 C526.6040881 1172.69884489 496.52947211 1179.14594955 466.03668213 1184.63287354 C464.09741401 1184.98244043 462.15879591 1185.33560767 460.22021484 1185.68896484 C456.98130391 1186.27855812 453.74121854 1186.86074248 450.5 1187.4375 C449.58710205 1187.6015332 448.6742041 1187.76556641 447.73364258 1187.93457031 C443.77793371 1188.62118399 440.03350852 1189.20663466 436 1189 C436 1189.66 436 1190.32 436 1191 C436.69480469 1191.22300781 437.38960937 1191.44601562 438.10546875 1191.67578125 C441.67943937 1193.31083664 444.38876391 1195.61819531 447.3125 1198.1875 C447.88718018 1198.68362793 448.46186035 1199.17975586 449.05395508 1199.69091797 C450.70797159 1201.12128036 452.35453201 1202.55982173 454 1204 C454.75023437 1204.64839844 455.50046875 1205.29679687 456.2734375 1205.96484375 C458.19390179 1207.63055257 460.09751482 1209.3137879 462 1211 C462.71494629 1211.63010986 463.42989258 1212.26021973 464.16650391 1212.90942383 C470.22733438 1218.29980845 476.04710438 1223.89100672 481.76928711 1229.63891602 C483.19337492 1231.06839717 484.62278044 1232.49240511 486.05273438 1233.91601562 C491.2448693 1239.11538698 496.24718979 1244.39700536 501 1250 C501.87705914 1251.00958832 502.75462801 1252.01873416 503.6328125 1253.02734375 C520.27870607 1272.46494674 535.4752192 1293.27881835 549 1315 C549.46728516 1315.74910645 549.93457031 1316.49821289 550.41601562 1317.27001953 C594.21190995 1387.8975663 621.53125222 1467.58973649 633 1556 C633.15452637 1557.1977002 633.30905273 1558.39540039 633.46826172 1559.62939453 C637.02301414 1587.51960616 638.31582595 1615.10011749 638.19561768 1643.1784668 C638.18479646 1646.35648709 638.18520452 1649.53446506 638.18559551 1652.71250057 C638.18502421 1680.56820979 637.32158287 1708.09463258 634.3125 1735.8125 C634.18061279 1737.0481369 634.04872559 1738.2837738 633.9128418 1739.55685425 C631.73891551 1759.82526105 629.03072762 1779.91869473 625.36853027 1799.97021484 C625.00001967 1801.99989165 624.63977944 1804.03086624 624.28222656 1806.0625 C618.17524904 1840.71470115 610.79070646 1875.414406 600.5703125 1909.09912109 C599.63918828 1912.20260275 598.75892973 1915.32030842 597.875 1918.4375 C596.69761796 1922.56548724 595.52025883 1926.6932839 594.3125 1930.8125 C594.08175781 1931.60269531 593.85101562 1932.39289063 593.61328125 1933.20703125 C593 1935 593 1935 592 1936 C589.36749681 1936.11457387 586.76240316 1936.16389074 584.12890625 1936.16796875 C583.31288437 1936.17220352 582.49686249 1936.17643829 581.65611267 1936.18080139 C578.95819128 1936.19081691 576.260437 1936.19069268 573.5625 1936.1875 C572.63808105 1936.18689575 571.71366211 1936.1862915 570.76123047 1936.18566895 C533.45615008 1936.1196394 496.70817608 1932.74145894 460 1926 C458.92105469 1925.8026123 457.84210938 1925.60522461 456.73046875 1925.40185547 C439.0025679 1922.13282646 421.55811963 1918.48374248 404.296875 1913.27734375 C400.71873614 1912.20211139 397.12453508 1911.20198379 393.51879883 1910.22387695 C385.74702297 1908.11430894 378.05017213 1905.81333574 370.375 1903.375 C369.00661987 1902.9411499 369.00661987 1902.9411499 367.6105957 1902.49853516 C362.34455437 1900.80901558 357.16313072 1898.97855998 352 1897 C350.47802002 1896.43079834 350.47802002 1896.43079834 348.92529297 1895.85009766 C329.8559166 1888.71403138 311.33027897 1880.89605621 293 1872 C291.41251953 1871.23405518 291.41251953 1871.23405518 289.79296875 1870.45263672 C261.17400284 1856.59310948 233.99658801 1840.29878276 208 1822 C207.23558594 1821.46375 206.47117187 1820.9275 205.68359375 1820.375 C195.37457024 1813.11856382 185.4527482 1805.49973227 175.75292969 1797.44873047 C173.24988676 1795.38005961 170.71579624 1793.35017785 168.1875 1791.3125 C163.49572879 1787.47313768 159.00992589 1783.43797632 154.55078125 1779.33203125 C152.39924849 1777.36500972 150.21708027 1775.45446871 148 1773.5625 C144.12074723 1770.20207734 140.53405394 1766.56625678 136.93457031 1762.91308594 C134.62768416 1760.58359909 132.32476224 1758.34339535 129.75 1756.3125 C126.82787785 1753.85526092 124.51822749 1751.20434717 122.05078125 1748.3046875 C119.63848423 1745.59372514 117.08354315 1743.04549842 114.5 1740.5 C110.11627343 1736.1626426 105.98898047 1731.70100944 102 1727 C101.09858363 1725.96143394 100.19614991 1724.92375043 99.29296875 1723.88671875 C92.78234339 1716.38886131 86.51249196 1708.74247907 80.44921875 1700.87890625 C78.91880278 1698.89472813 77.38113813 1696.91627937 75.84375 1694.9375 C38.1750713 1646.2710786 7.54643459 1591.83914719 -16.25 1535.125 C-16.52866913 1534.46274414 -16.80733826 1533.80048828 -17.0944519 1533.11816406 C-17.88637194 1531.22951928 -18.67137544 1529.33818698 -19.453125 1527.4453125 C-20.12069824 1525.82906982 -20.12069824 1525.82906982 -20.80175781 1524.18017578 C-22.0702659 1520.81351191 -23.05790859 1517.4702008 -24 1514 C-24.66 1514 -25.32 1514 -26 1514 C-26.07863281 1514.64324219 -26.15726563 1515.28648438 -26.23828125 1515.94921875 C-27.30367253 1520.21624741 -29.20706728 1523.8993651 -31.1875 1527.8125 C-31.84310913 1529.11453369 -31.84310913 1529.11453369 -32.51196289 1530.44287109 C-38.20102264 1541.56485977 -44.57800899 1552.28991325 -51 1563 C-51.51804199 1563.8652832 -52.03608398 1564.73056641 -52.56982422 1565.62207031 C-58.14516672 1574.90760301 -63.84799578 1584.0824159 -70 1593 C-70.41266113 1593.60038086 -70.82532227 1594.20076172 -71.25048828 1594.81933594 C-82.44166371 1611.05242186 -94.25853779 1626.94603041 -107 1642 C-107.44762695 1642.53109375 -107.89525391 1643.0621875 -108.35644531 1643.609375 C-114.8978588 1651.35957537 -121.58087767 1658.95154488 -128.49023438 1666.37695312 C-130.15825571 1668.17013001 -131.82120543 1669.96794773 -133.484375 1671.765625 C-149.73173616 1689.2918756 -149.73173616 1689.2918756 -158.6484375 1696.9296875 C-161.14414634 1699.12690625 -163.56779094 1701.38905211 -165.99121094 1703.6652832 C-172.45256722 1709.73081646 -179.06100072 1715.48076887 -186 1721 C-187.12854542 1721.91941877 -188.25609538 1722.84006036 -189.3828125 1723.76171875 C-218.56813181 1747.53855603 -250.45987813 1767.03175274 -284 1784 C-284.84723633 1784.4316748 -285.69447266 1784.86334961 -286.56738281 1785.30810547 C-367.46223604 1826.23495634 -460.1459767 1839.51957066 -593.37353516 1827.40527344 C-596.90734284 1826.85999358 -600.44722749 1826.53543566 -604.01049805 1826.25048828 C-606 1826 -606 1826 -608 1825 C-611.24047295 1824.51370802 -614.48705013 1824.1031066 -617.73828125 1823.6953125 C-623.28805309 1822.51224736 -626.12972841 1820.34257365 -629.28271484 1815.625 C-629.66379395 1815.026875 -630.04487305 1814.42875 -630.4375 1813.8125 C-630.85725098 1813.16667969 -631.27700195 1812.52085938 -631.70947266 1811.85546875 C-652.54207731 1779.3509082 -668.9733692 1745.11598717 -681.98535156 1708.80908203 C-682.80915289 1706.52836546 -683.65335738 1704.25938815 -684.5234375 1701.99609375 C-688.25748429 1692.11395081 -690.75893803 1681.91337421 -693.32421875 1671.6796875 C-693.89990063 1669.39692584 -694.49083217 1667.11942482 -695.09375 1664.84375 C-698.26481501 1652.67095206 -700.84096981 1640.39088142 -703 1628 C-703.30284912 1626.29142822 -703.30284912 1626.29142822 -703.61181641 1624.54833984 C-712.69034652 1570.60593329 -709.07855565 1511.7288643 -695 1459 C-694.69191406 1457.8454834 -694.38382813 1456.6909668 -694.06640625 1455.50146484 C-680.17943969 1404.48414942 -656.67087972 1356.03252707 -626 1313 C-625.49645996 1312.28537598 -624.99291992 1311.57075195 -624.47412109 1310.83447266 C-617.17661004 1300.47968382 -609.53891335 1290.49995343 -601.44873047 1280.75292969 C-599.38005961 1278.24988676 -597.35017785 1275.71579624 -595.3125 1273.1875 C-591.54395302 1268.58226644 -587.59211696 1264.17126466 -583.5546875 1259.80078125 C-581.56145975 1257.61554532 -579.60998541 1255.40916559 -577.671875 1253.17578125 C-573.39041106 1248.2655749 -568.91239147 1243.54996089 -564.4296875 1238.82421875 C-560.80746524 1234.98674148 -557.32935421 1231.09472299 -554 1227 C-554.69859131 1226.89292725 -555.39718262 1226.78585449 -556.11694336 1226.67553711 C-559.40508156 1225.9050842 -562.09303744 1224.67189635 -565.12890625 1223.19140625 C-565.71110428 1222.90937347 -566.29330231 1222.6273407 -566.8931427 1222.33676147 C-568.78585645 1221.41788492 -570.67429029 1220.49059248 -572.5625 1219.5625 C-573.88022072 1218.91904417 -575.19809313 1218.27589891 -576.51611328 1217.63305664 C-579.142035 1216.35067623 -581.76592664 1215.06427103 -584.38818359 1213.77441406 C-587.43760888 1212.27458553 -590.49324723 1210.78792652 -593.55078125 1209.3046875 C-605.36200799 1203.53491612 -616.7905303 1197.16292491 -628.18457031 1190.61279297 C-630.85289824 1189.08426589 -633.52974141 1187.57222064 -636.2109375 1186.06640625 C-660.74209751 1172.2569153 -684.23713994 1157.08174062 -707.39520264 1141.10675049 C-708.823764 1140.12154137 -710.25381879 1139.13849853 -711.68408203 1138.15576172 C-740.4061489 1118.38100257 -767.97687576 1096.43103122 -793.79296875 1072.9921875 C-795.73626001 1071.23806619 -797.70359448 1069.52027306 -799.6875 1067.8125 C-811.4040016 1057.5404986 -822.47580372 1046.62766604 -833.5 1035.625 C-834.1139563 1035.0136319 -834.7279126 1034.40226379 -835.36047363 1033.77236938 C-847.26489941 1021.90749254 -847.26489941 1021.90749254 -852.58105469 1015.6640625 C-854.76858593 1013.0986439 -857.07711312 1010.65445063 -859.375 1008.1875 C-863.59274087 1003.61702095 -867.6095264 998.9306113 -871.5078125 994.08203125 C-873.37869084 991.76835882 -875.26731879 989.47813421 -877.1796875 987.19921875 C-885.90349988 976.77729266 -894.06057644 966.02853851 -902 955 C-902.51272461 954.29407715 -903.02544922 953.5881543 -903.55371094 952.86083984 C-939.10382788 903.88401965 -965.96031928 849.76298265 -984.5625 792.25 C-984.77464142 791.59610291 -984.98678284 790.94220581 -985.20535278 790.26849365 C-991.90127101 769.53492644 -991.90127101 769.53492644 -990 762 C-988.23308834 759.43562115 -986.08781149 757.36315161 -983.83984375 755.21875 C-983.21654678 754.60157104 -982.59324982 753.98439209 -981.95106506 753.34851074 C-979.96021313 751.38449865 -977.94927337 749.44255158 -975.9375 747.5 C-974.61130838 746.19535271 -973.28642453 744.88937464 -971.96289062 743.58203125 C-965.80691934 737.5250857 -959.59441908 731.58113261 -953 726 C-951.80809027 724.95518117 -950.61799345 723.9082907 -949.4296875 722.859375 C-941.80827403 716.17763149 -934.06180549 709.72858464 -926.02148438 703.55761719 C-923.77079959 701.82339388 -921.53429568 700.07161086 -919.296875 698.3203125 C-906.29098505 688.20475916 -892.82668622 678.95362242 -879 670 C-878.17822266 669.4642334 -877.35644531 668.9284668 -876.50976562 668.37646484 C-831.75102503 639.25710876 -782.95854046 614.43244524 -731.66796875 599.125 C-728.51842049 598.15900437 -725.42761428 597.09065706 -722.32666016 595.98120117 C-698.08981481 587.44730136 -672.31145227 582.08606803 -647 578 C-645.92008789 577.82130371 -644.84017578 577.64260742 -643.72753906 577.45849609 C-612.94449998 572.43685975 -582.47110132 570.72307796 -551.3125 570.6875 C-550.05147461 570.68391479 -548.79044922 570.68032959 -547.49121094 570.67663574 C-530.23502104 570.65022779 -513.18150214 571.40685468 -496 573 C-494.62965476 573.12168192 -493.25929575 573.24320912 -491.88891602 573.36450195 C-475.82189767 574.85750162 -460.00768653 577.38455572 -444.16259766 580.40332031 C-441.35502498 580.93301829 -438.54491042 581.43809618 -435.73046875 581.9296875 C-413.6535644 585.84648739 -391.50819247 591.05983735 -370.26489258 598.25585938 C-367.49010989 599.16752668 -364.69734081 600.01172414 -361.90234375 600.859375 C-354.64926427 603.07964127 -347.48005479 605.51935702 -340.3125 608 C-339.07177734 608.42539062 -337.83105469 608.85078125 -336.55273438 609.2890625 C-329.62301609 611.6808975 -322.7712063 614.18905133 -316 617 C-316.14147461 616.03852051 -316.28294922 615.07704102 -316.42871094 614.08642578 C-318.41271559 599.37632035 -318.31138255 584.69395023 -318.25 569.875 C-318.24633931 568.51155649 -318.24287219 567.14811245 -318.23959351 565.78466797 C-318.03944741 492.69645963 -310.83693777 418.25335372 -288.69580078 348.2734375 C-287.97933492 345.93247958 -287.32341483 343.58175264 -286.68359375 341.21875 C-274.42881368 296.0225883 -255.39594671 251.54660154 -232 211 C-231.53062012 210.18241211 -231.06124023 209.36482422 -230.57763672 208.52246094 C-216.09367647 183.44471681 -199.73306943 159.11496869 -181 137 C-180.10765282 135.93394525 -179.21574952 134.86751885 -178.32421875 133.80078125 C-173.37236145 127.89316641 -168.34241749 122.07196561 -163.15234375 116.37109375 C-161.75647894 114.83336246 -160.37280903 113.2844377 -159.00390625 111.72265625 C-154.1685565 106.22918707 -149.10088031 100.99552651 -143.9375 95.8125 C-142.94641235 94.81452393 -142.94641235 94.81452393 -141.93530273 93.79638672 C-138.02384606 89.89704581 -134.00094377 86.18681769 -129.81958008 82.57885742 C-127.45226095 80.52472448 -125.16715342 78.38737778 -122.875 76.25 C-117.12728989 71.01477433 -111.08864657 66.24265585 -104.93066406 61.50244141 C-102.95410245 59.96428256 -101.00298366 58.397989 -99.0546875 56.82421875 C-74.19766272 36.88611489 -46.6798879 20.20560156 -18.54199219 5.34814453 C-16.79677013 4.42256672 -15.06345538 3.47428996 -13.34082031 2.50732422 C-5.11291846 -1.95393821 -5.11291846 -1.95393821 0 0 Z " fill="#049C9E" transform="translate(1061,113)"/>
<path d="M0 0 C2.08677192 2.08677192 2.49975948 3.0474286 3.35693359 5.78442383 C3.72774551 6.95253349 3.72774551 6.95253349 4.10604858 8.14424133 C4.36753693 8.98996201 4.62902527 9.83568268 4.8984375 10.70703125 C5.17466949 11.58340744 5.45090149 12.45978363 5.73550415 13.36271667 C6.62116039 16.17752065 7.49813869 18.99494536 8.375 21.8125 C8.95777355 23.66879563 9.54110082 25.52491751 10.125 27.38085938 C12.83183769 35.99682985 15.50639027 44.62249012 18.15478516 53.2565918 C19.41431952 57.34480314 20.70542049 61.42277811 22 65.5 C24.00954787 71.84514741 25.98925189 78.19822286 27.9375 84.5625 C29.27236006 88.88116491 30.63558135 93.19059853 32 97.5 C34.00901869 103.84531647 35.98925028 110.19821757 37.9375 116.5625 C39.27236006 120.88116491 40.63558135 125.19059853 42 129.5 C44.00901869 135.84531647 45.98925028 142.19821757 47.9375 148.5625 C49.50613414 153.6374928 51.11123554 158.70087497 52.71875 163.76367188 C54.0987235 168.11733827 55.45633262 172.47717111 56.79492188 176.84375 C58.90244981 183.69850626 61.04205146 190.54302646 63.18977356 197.38526917 C63.86363142 199.53208953 64.53703056 201.67905335 65.21032715 203.8260498 C66.63982967 208.3841551 68.0698715 212.94209108 69.5 217.5 C71.16049169 222.79209079 72.82074678 228.08425557 74.48042297 233.37660217 C75.13587353 235.46628647 75.79174098 237.5558396 76.44763184 239.64538574 C78.70447419 246.83940445 80.94247012 254.03881228 83.15032959 261.24803162 C83.911708 263.71403407 84.69104027 266.17303089 85.484375 268.62890625 C85.80341797 269.62180664 85.80341797 269.62180664 86.12890625 270.63476562 C86.55470174 271.95633842 86.98460144 273.27659387 87.41796875 274.59570312 C88.48663878 277.94442382 89 280.43873443 89 284 C187.34 284 285.68 284 387 284 C381.38222417 289.61777583 381.38222417 289.61777583 377.98828125 292.05859375 C377.2394165 292.60233643 376.49055176 293.1460791 375.71899414 293.70629883 C374.52777954 294.56324341 374.52777954 294.56324341 373.3125 295.4375 C366.64272459 300.29018295 360.05634858 305.22664659 353.5625 310.3125 C347.87176151 314.76662293 342.15144127 319.16737478 336.35546875 323.484375 C331.87707344 326.82951357 327.44263927 330.23262911 323 333.625 C315.85870795 339.07599611 308.69366525 344.49331689 301.5 349.875 C295.1341329 354.63855323 288.80028564 359.43670393 282.5078125 364.296875 C270.07051917 373.89578188 257.53503827 383.365578 244.95654297 392.77832031 C239.44044194 396.909649 233.96205016 401.084139 228.5078125 405.296875 C216.07135784 414.89513461 203.53770894 424.36576381 190.95874023 433.77612305 C185.44237236 437.90668904 179.97121716 442.08909813 174.51953125 446.3046875 C166.7434603 452.28628054 158.85745859 458.1260347 151 464 C151.57359799 468.75514482 152.52079982 473.05704942 154.0405426 477.59591675 C154.24809722 478.22129274 154.45565184 478.84666874 154.669496 479.49099553 C155.36065603 481.56869363 156.06031215 483.64342474 156.76000977 485.71826172 C157.26000656 487.21548377 157.75946853 488.71288452 158.25843811 490.21044922 C159.61306984 494.27122497 160.97504373 498.32950433 162.33825421 502.38740683 C163.772406 506.66099023 165.19944474 510.93694729 166.62718201 515.212677 C169.33997074 523.33344514 172.05860448 531.45224305 174.7795791 539.57027161 C179.62660042 554.03212932 184.46270351 568.49764076 189.29824871 582.96333897 C190.98939928 588.02176096 192.68274102 593.0794424 194.37794936 598.1365059 C199.43275089 613.21789175 204.45916167 628.30358779 209.27447701 643.46359539 C212.15638052 652.52979513 215.15470854 661.55469234 218.18595695 670.57190514 C219.12565441 673.3682852 220.06262063 676.1655683 220.99891663 678.96308899 C223.65336975 686.89343962 226.310774 694.82279375 228.97387695 702.75024414 C230.62089525 707.65366421 232.2635242 712.55853608 233.90335274 717.46436501 C234.52325307 719.31604377 235.1448152 721.1671671 235.76811028 723.01770592 C236.63331976 725.58685448 237.49293568 728.15781194 238.35131836 730.72924805 C238.60632614 731.48191452 238.86133392 732.23458099 239.12406921 733.01005554 C240.44669264 736.99307862 241.43727522 740.82221967 242 745 C240.39265132 744.00512267 238.78936355 743.00368514 237.1875 742 C236.29417969 741.443125 235.40085937 740.88625 234.48046875 740.3125 C230.50917389 737.74085861 226.72750311 734.90770576 222.91088867 732.11425781 C218.34376158 728.79702888 213.70368423 725.58738325 209.0625 722.375 C207.0323776 720.96639727 205.00243279 719.55753857 202.97265625 718.1484375 C201.96734863 717.45073242 200.96204102 716.75302734 199.92626953 716.03417969 C195.6098776 713.03366429 191.30438051 710.01770965 187 707 C179.84387624 701.98476843 172.67548584 696.98748816 165.5 692 C157.50850164 686.44532338 149.5286375 680.87446916 141.55859375 675.2890625 C135.2152193 670.84568452 128.85945204 666.42033002 122.5 662 C111.16874721 654.12322456 99.86247 646.21118242 88.56152344 638.29101562 C77.91082005 630.82743842 67.24626845 623.38427883 56.56713867 615.96142578 C50.3699294 611.65253835 44.1812699 607.33171708 38 603 C30.5496993 597.78011138 23.09079531 592.5727056 15.625 587.375 C14.655625 586.69953125 13.68625 586.0240625 12.6875 585.328125 C10.89918255 584.08385905 9.10804188 582.84363622 7.31347656 581.60839844 C5.90997682 580.63264323 4.5176307 579.6401937 3.14746094 578.61816406 C0.3985695 576.49009665 0.3985695 576.49009665 -2.92138672 576.25463867 C-5.18450305 577.06616018 -6.87036874 578.07742424 -8.84375 579.44921875 C-9.58463867 579.96009033 -10.32552734 580.47096191 -11.08886719 580.99731445 C-11.88454102 581.55507568 -12.68021484 582.11283691 -13.5 582.6875 C-14.33950195 583.26910889 -15.17900391 583.85071777 -16.04394531 584.44995117 C-18.70061877 586.29338243 -21.35093546 588.14565482 -24 590 C-25.63019097 591.13804571 -27.26039888 592.27606715 -28.890625 593.4140625 C-32.18487518 595.71638473 -35.47598488 598.02312778 -38.765625 600.33203125 C-44.33272841 604.237234 -49.91572796 608.11940418 -55.5 612 C-66.01633308 619.31010187 -76.51188098 626.64949608 -87 634 C-98.4631275 642.03382984 -109.93869327 650.04920409 -121.43286133 658.03857422 C-127.63007026 662.34746142 -133.8187852 666.66820467 -140 671 C-148.13147541 676.69853797 -156.28023925 682.371884 -164.43359375 688.0390625 C-170.63054085 692.34781229 -176.81902545 696.66837304 -183 701 C-191.12248041 706.69223427 -199.26098609 712.36111151 -207.40722656 718.01928711 C-212.11883699 721.29345032 -216.82448534 724.57546413 -221.515625 727.87890625 C-238.27458105 739.67669394 -238.27458105 739.67669394 -247 745 C-246.84144531 744.47535156 -246.68289063 743.95070313 -246.51953125 743.41015625 C-245.31829975 739.42153675 -244.12470016 735.43172706 -242.96875 731.4296875 C-237.87761882 713.80688211 -232.15236431 696.38684107 -226.3125 679 C-223.68058671 671.15997658 -221.14105449 663.31791779 -218.86230469 655.3684082 C-216.90491599 648.57354272 -214.74203989 641.84905516 -212.57397461 635.11889648 C-210.24943235 627.90236751 -207.94316597 620.68042438 -205.65234375 613.453125 C-194.81550045 579.27711779 -194.81550045 579.27711779 -189.4909668 563.50952148 C-187.20309165 556.7024178 -185.13150574 549.84930141 -183.14453125 542.94921875 C-180.53598012 533.89442864 -177.7336066 524.91449808 -174.5 516.0625 C-172.47034057 510.46993996 -170.73104501 504.82770358 -169.0925293 499.11206055 C-166.81708301 491.2355157 -164.28979891 483.44135334 -161.76635742 475.64135742 C-158.34073213 466.00796531 -158.34073213 466.00796531 -157 456 C-158.41242701 454.4144027 -158.41242701 454.4144027 -160.41796875 453.109375 C-161.16691406 452.573125 -161.91585937 452.036875 -162.6875 451.484375 C-163.5125 450.91203125 -164.3375 450.3396875 -165.1875 449.75 C-166.9427301 448.49664356 -168.69658806 447.24136377 -170.44921875 445.984375 C-171.36493652 445.33146484 -172.2806543 444.67855469 -173.22412109 444.00585938 C-177.71726823 440.75909624 -182.10556962 437.37850267 -186.5 434 C-193.11825857 428.93193678 -199.77506521 423.92562113 -206.5 419 C-214.12740017 413.4133758 -221.65644565 407.70723662 -229.1640625 401.9609375 C-234.89902727 397.57935674 -240.67759563 393.26457042 -246.5 389 C-254.12740017 383.4133758 -261.65644565 377.70723662 -269.1640625 371.9609375 C-274.89902727 367.57935674 -280.67759563 363.26457042 -286.5 359 C-294.12740017 353.4133758 -301.65644565 347.70723662 -309.1640625 341.9609375 C-314.89902727 337.57935674 -320.67759563 333.26457042 -326.5 329 C-334.1214867 323.41770707 -341.64505411 317.71645212 -349.14648438 311.97412109 C-355.05251507 307.46141454 -361.00590585 303.0199449 -367 298.625 C-372.59420382 294.52018848 -378.17364771 290.39989833 -383.6875 286.1875 C-384.72261719 285.39730469 -385.75773438 284.60710937 -386.82421875 283.79296875 C-387.90123047 282.90544922 -387.90123047 282.90544922 -389 282 C-389 281.67 -389 281.34 -389 281 C-356.02384193 280.95050088 -323.05223237 281.0285226 -290.07751083 281.34395218 C-286.74069592 281.3756828 -283.40387289 281.40641478 -280.06704712 281.4369812 C-216.37480021 282.02508483 -152.68721399 283.02127313 -89 284 C-88.80591553 283.1961084 -88.61183105 282.3922168 -88.41186523 281.56396484 C-88.15091064 280.49871582 -87.88995605 279.4334668 -87.62109375 278.3359375 C-87.36513428 277.2845459 -87.1091748 276.2331543 -86.84545898 275.14990234 C-86.06207626 272.23127574 -85.13159462 269.4495043 -84.0625 266.625 C-82.54192313 262.60264382 -81.27426469 258.58152912 -80.125 254.4375 C-78.62262512 249.03834026 -76.93495702 243.74074378 -75.125 238.4375 C-72.52399211 230.80137708 -70.2817047 223.09369113 -68.10986328 215.32592773 C-66.6461245 210.13355259 -64.99965928 205.09911412 -63.0625 200.0625 C-61.51316786 195.59677796 -60.27325726 191.0509492 -59 186.5 C-57.249032 180.24158961 -55.3965314 174.13098165 -53.0625 168.0625 C-51.51316786 163.59677796 -50.27325726 159.0509492 -49 154.5 C-47.249032 148.24158961 -45.3965314 142.13098165 -43.0625 136.0625 C-41.51316786 131.59677796 -40.27325726 127.0509492 -39 122.5 C-35.92073171 111.49390244 -35.92073171 111.49390244 -34 106.5 C-32.1404613 101.63949844 -30.76128246 96.69781318 -29.375 91.6875 C-26.48369512 81.27708028 -23.08924853 71.05522068 -19.60302734 60.83276367 C-17.16664761 53.65405886 -14.94723329 46.45428546 -12.90234375 39.15454102 C-11.7479128 35.11871786 -10.43301343 31.1539773 -9.0625 27.1875 C-6.70089627 20.24939106 -4.55198705 13.27087776 -2.56079102 6.2175293 C-1.10092086 1.10092086 -1.10092086 1.10092086 0 0 Z " fill="#F8FCFE" transform="translate(1036,711)"/>
</svg>
